<svg xmlns="http://www.w3.org/2000/svg" xmlns:xlink="http://www.w3.org/1999/xlink"
  viewBox="0 0 512 512">
  <defs>
    <filter id="shadow">
      <feDropShadow dx="6" dy="6" stdDeviation="8" flood-color="#000000" flood-opacity="0.25"/>
    </filter>
  </defs>
  <rect x="40" y="40" width="432" height="432" rx="84" ry="84" fill="white" filter="url(#shadow)"/>
  <path transform="translate(130, 380) scale(0.5)"
    d="M236.3-239.1L236.3-239.1L118.1-239.1L118.1-53.4Q112.5-11.3 182.8-14.1L182.8-14.1L160.8 0L11.3 0L11.3-14.1Q81.6-11.3 75.9-53.4L75.9-53.4L75.9-444.4Q84.4-497.8 11.3-492.2L11.3-492.2L11.3-506.3L227.8-506.3Q371.3-500.6 379.7-376.9L379.7-376.9Q374.1-247.5 236.3-239.1ZM216.6-486.6L216.6-486.6L165.9-486.6Q112.5-489.4 118.1-444.4L118.1-444.4L118.1-255.9L225.0-255.9Q329.1-258.8 331.9-376.9L331.9-376.9Q329.1-483.8 216.6-486.6ZM362.0-239.1L362.0-239.1L243.9-239.1L243.9-53.4Q238.3-11.3 308.6-14.1L308.6-14.1L308.6 0L137.0 0L137.0-14.1Q207.3-11.3 201.7-53.4L201.7-53.4L201.7-444.4Q210.2-497.8 137.0-492.2L137.0-492.2L137.0-506.3L353.6-506.3Q497.0-500.6 505.5-376.9L505.5-376.9Q499.8-247.5 362.0-239.1ZM342.3-486.6L342.3-486.6L291.7-486.6Q238.3-489.4 243.9-444.4L243.9-444.4L243.9-255.9L350.8-255.9Q454.8-258.8 457.7-376.9L457.7-376.9Q454.8-483.8 342.3-486.6Z">
  </path>
</svg>